<svg width="700" height="221" viewBox="0 0 700 221" fill="none" xmlns="http://www.w3.org/2000/svg">
<path d="M35.5341 50.1647L36.7711 64.4458C45.3922 53.4257 56.9746 47.9157 71.5181 47.9157C86.8862 47.9157 97.2691 54.0254 102.667 66.245C110.913 54.0254 122.833 47.9157 138.426 47.9157C163.09 47.9157 175.759 62.834 176.434 92.6707V171.835H138.426V95.0321C138.426 88.8099 137.376 84.2744 135.277 81.4257C133.178 78.577 129.355 77.1526 123.807 77.1526C116.311 77.1526 110.726 80.4886 107.052 87.1606L107.165 88.7349V171.835H69.1566V95.257C69.1566 88.8849 68.1446 84.2744 66.1205 81.4257C64.0964 78.577 60.2356 77.1526 54.5382 77.1526C47.2664 77.1526 41.7189 80.4886 37.8956 87.1606V171.835H0V50.1647H35.5341Z" fill="white"/>
<path d="M185.646 109.875C185.646 97.7309 188.007 86.9357 192.73 77.49C197.453 67.9692 204.237 60.66 213.083 55.5622C221.929 50.4645 232.312 47.9157 244.232 47.9157C262.449 47.9157 276.805 53.5756 287.3 64.8956C297.796 76.1406 303.043 91.4712 303.043 110.888V112.237C303.043 131.203 297.758 146.272 287.188 157.442C276.692 168.537 262.449 174.084 244.457 174.084C227.14 174.084 213.233 168.912 202.738 158.566C192.243 148.146 186.583 134.052 185.758 116.285L185.646 109.875ZM223.541 112.237C223.541 123.482 225.303 131.728 228.826 136.976C232.35 142.224 237.56 144.847 244.457 144.847C257.951 144.847 264.848 134.465 265.148 113.699V109.875C265.148 88.0602 258.176 77.1526 244.232 77.1526C231.563 77.1526 224.703 86.5609 223.654 105.378L223.541 112.237Z" fill="white"/>
<path d="M350.317 171.835H312.309V38.263L348.6 0.881577C349.225 0.237219 350.317 0.680074 350.317 1.57813V171.835Z" fill="white"/>
<path d="M417.791 126.518L407.109 137.201V171.835H369.213V38.263L405.39 0.887889C406.015 0.24209 407.109 0.684607 407.109 1.58339V90.759L410.932 85.6988L439.494 50.1647H484.924L442.306 100.205L487.735 171.835H444.33L417.791 126.518Z" fill="white"/>
<path d="M515.186 126.518L504.504 137.201V171.835H466.608V38.263L502.784 0.781571C503.409 0.134377 504.504 0.576563 504.504 1.47604V90.759L508.327 85.6988L536.889 50.1647H582.319L539.701 100.205L585.13 171.835H541.725L515.186 126.518Z" fill="white"/>
<path d="M639.165 118.759L659.406 50.1647H700L650.41 192.189L648.273 197.361C641.226 213.104 628.782 220.976 610.94 220.976C605.992 220.976 600.782 220.226 595.309 218.727V191.627H600.257C605.58 191.627 609.628 190.839 612.402 189.265C615.25 187.766 617.349 185.029 618.699 181.056L621.735 172.96L579.454 50.1647H619.936L639.165 118.759Z" fill="white"/>
<path d="M350.317 171.835H312.309V38.263L348.6 0.881577C349.225 0.237219 350.317 0.680074 350.317 1.57813V171.835Z" fill="white"/>
</svg>
