<svg width="136" height="48" viewBox="0 0 136 48" fill="none" xmlns="http://www.w3.org/2000/svg">
<g clip-path="url(#clip0)">
<path d="M7.71484 11.1084L7.9834 14.209C9.85514 11.8164 12.3698 10.6201 15.5273 10.6201C18.8639 10.6201 21.1182 11.9466 22.29 14.5996C24.0804 11.9466 26.6683 10.6201 30.0537 10.6201C35.4085 10.6201 38.1592 13.859 38.3057 20.3369V37.5244H30.0537V20.8496C30.0537 19.4987 29.8258 18.514 29.3701 17.8955C28.9144 17.277 28.0843 16.9678 26.8799 16.9678C25.2523 16.9678 24.0397 17.6921 23.2422 19.1406L23.2666 19.4824V37.5244H15.0146V20.8984C15.0146 19.515 14.7949 18.514 14.3555 17.8955C13.916 17.277 13.0778 16.9678 11.8408 16.9678C10.262 16.9678 9.05762 17.6921 8.22754 19.1406V37.5244H0V11.1084H7.71484Z" fill="white"/>
<path d="M34.8057 24.0723C34.8057 21.4355 35.3184 19.0918 36.3438 17.041C37.3691 14.974 38.8421 13.387 40.7627 12.2803C42.6833 11.1735 44.9375 10.6201 47.5254 10.6201C51.4805 10.6201 54.5973 11.849 56.876 14.3066C59.1546 16.748 60.2939 20.0765 60.2939 24.292V24.585C60.2939 28.7028 59.1465 31.9743 56.8516 34.3994C54.5729 36.8083 51.4805 38.0127 47.5742 38.0127C43.8145 38.0127 40.7952 36.8896 38.5166 34.6436C36.238 32.3812 35.0091 29.3213 34.8301 25.4639L34.8057 24.0723ZM43.0332 24.585C43.0332 27.0264 43.4157 28.8167 44.1807 29.9561C44.9456 31.0954 46.0768 31.665 47.5742 31.665C50.5039 31.665 52.0013 29.4108 52.0664 24.9023V24.0723C52.0664 19.3359 50.5527 16.9678 47.5254 16.9678C44.7747 16.9678 43.2855 19.0104 43.0576 23.0957L43.0332 24.585Z" fill="white"/>
<path d="M70.9346 37.5244H62.6826V8.52441L70.9346 0.0244141V37.5244Z" fill="white"/>
<path d="M84.084 27.6855L81.7646 30.0049V37.5244H73.5371V0L81.7646 8.52441V19.9219L82.5947 18.8232L88.7959 11.1084H98.6592L89.4062 21.9727L99.2695 37.5244H89.8457L84.084 27.6855Z" fill="white"/>
<path d="M103.928 27.6855L101.608 30.0049V37.5244H93.3809V8.52441L101.608 0V19.9219L102.438 18.8232L108.64 11.1084H118.503L109.25 21.9727L119.113 37.5244H109.689L103.928 27.6855Z" fill="white"/>
<path d="M123.723 26.001L128.117 11.1084H136.931L126.164 41.9434L125.7 43.0664C124.17 46.4844 121.468 48.1934 117.595 48.1934C116.521 48.1934 115.389 48.0306 114.201 47.7051V41.8213H115.275C116.431 41.8213 117.31 41.6504 117.912 41.3086C118.531 40.9831 118.986 40.389 119.279 39.5264L119.938 37.7686L110.759 11.1084H119.548L123.723 26.001Z" fill="white"/>
</g>
<defs>
<clipPath id="clip0">
<rect width="136" height="48" fill="white"/>
</clipPath>
</defs>
</svg>
