<svg width="260" height="260" viewBox="0 0 260 260" fill="none" xmlns="http://www.w3.org/2000/svg">
<path d="M70 30C67.5 32.6 54.5 46.1 41 60C27.5 73.8 12.8 89 8.2 93.7L0 102.3V168.9V235.6H38H76V130.8C76 73.2 75.7 25.9 75.3 25.7C74.8 25.5 72.5 27.4 70 30Z" fill="url(#paint0_linear)"/>
<path d="M255 29C252 32.3 216.5 68.9 191.8 94.3L184 102.2V168.9V235.6H222H260V130.9C260 73.2 259.7 25.9 259.3 25.7C258.8 25.5 256.9 27 255 29Z" fill="url(#paint1_linear)"/>
<path d="M156.7 70.4C152.2 75 137.5 90.2 124 104.1C110.5 118 97.4 131.5 94.7 134.1L90 138.9L90.2 187.2L90.5 235.5H128.3L166 235.6V148.8C166 101.1 165.8 62 165.4 62C165.1 62 161.2 65.8 156.7 70.4Z" fill="url(#paint2_linear)"/>
<defs>
<linearGradient id="paint0_linear" x1="38" y1="235.6" x2="38" y2="25.6856" gradientUnits="userSpaceOnUse">
<stop stop-color="#002447"/>
<stop offset="0.0001" stop-color="#0F2C46"/>
<stop offset="1" stop-color="#AA7E41"/>
</linearGradient>
<linearGradient id="paint1_linear" x1="222" y1="235.6" x2="222" y2="25.6821" gradientUnits="userSpaceOnUse">
<stop stop-color="#002447"/>
<stop offset="0.0001" stop-color="#0F2C46"/>
<stop offset="1" stop-color="#AA7E41"/>
</linearGradient>
<linearGradient id="paint2_linear" x1="128" y1="235.6" x2="128" y2="62" gradientUnits="userSpaceOnUse">
<stop stop-color="#002447"/>
<stop offset="0.0001" stop-color="#0F2C46"/>
<stop offset="1" stop-color="#AA7E41"/>
</linearGradient>
</defs>
</svg>
