<svg width="694" height="221" viewBox="0 0 694 221" fill="none" xmlns="http://www.w3.org/2000/svg">
<path fill-rule="evenodd" clip-rule="evenodd" d="M515.187 126.518L504.504 137.201V171.835H487.735H466.608H444.33L417.791 126.518L407.109 137.201V171.835H369.213V38.263L405.39 0.887882C406.015 0.242085 407.109 0.684605 407.109 1.58339V90.759L410.932 85.6988L439.494 50.1647H466.608V38.263L502.784 0.781567C503.409 0.134373 504.504 0.576557 504.504 1.47603V90.759L508.327 85.6988L536.889 50.1647H572.5H582.319H612.982L632.211 118.759L652.452 50.1647H693.046L643.456 192.189L641.319 197.361C634.272 213.104 621.828 220.976 603.986 220.976C599.038 220.976 593.828 220.226 588.355 218.727V191.626H593.303C598.626 191.626 602.674 190.839 605.448 189.265C608.297 187.766 610.396 185.029 611.745 181.056L614.781 172.96L575.327 58.3745L539.701 100.205L585.13 171.835H541.725L515.187 126.518ZM466.608 71.67V138.524L442.306 100.205L466.608 71.67ZM312.309 38.263L348.6 0.881573C349.225 0.237217 350.317 0.680073 350.317 1.57813V171.835H312.309V38.263ZM36.7711 64.4458L35.5341 50.1647H0V171.835H37.8956V87.1606C41.7189 80.4886 47.2664 77.1526 54.5381 77.1526C60.2356 77.1526 64.0964 78.577 66.1205 81.4257C68.1446 84.2744 69.1566 88.8849 69.1566 95.257V171.835H107.165V88.7349L107.052 87.1606C110.726 80.4886 116.311 77.1526 123.807 77.1526C129.355 77.1526 133.178 78.577 135.277 81.4257C137.376 84.2744 138.426 88.8099 138.426 95.0321V171.835H176.434V92.6707C175.759 62.834 163.09 47.9157 138.426 47.9157C122.833 47.9157 110.913 54.0254 102.667 66.245C97.2691 54.0254 86.8862 47.9157 71.5181 47.9157C56.9746 47.9157 45.3922 53.4257 36.7711 64.4458ZM212.04 55.5623C203.194 60.66 196.41 67.9692 191.687 77.49C186.964 86.9357 184.602 97.7309 184.602 109.875L184.715 116.285C185.539 134.052 191.199 148.146 201.695 158.566C212.19 168.912 226.096 174.084 243.414 174.084C261.406 174.084 275.649 168.537 286.145 157.442C296.715 146.272 302 131.203 302 112.237V110.888C302 91.4712 296.752 76.1406 286.257 64.8956C275.762 53.5756 261.406 47.9157 243.189 47.9157C231.269 47.9157 220.886 50.4645 212.04 55.5623ZM227.783 136.976C224.26 131.728 222.498 123.482 222.498 112.237C222.498 100.992 222.61 105.377 222.61 105.377C223.66 86.5609 230.519 77.1526 243.189 77.1526C257.133 77.1526 264.104 88.0602 264.104 109.875V113.699C263.805 134.465 256.908 144.847 243.414 144.847C236.517 144.847 231.307 142.224 227.783 136.976ZM224 27C224 34.732 217.732 41 210 41C202.268 41 196 34.732 196 27C196 19.268 202.268 13 210 13C217.732 13 224 19.268 224 27ZM276 41C283.732 41 290 34.732 290 27C290 19.268 283.732 13 276 13C268.268 13 262 19.268 262 27C262 34.732 268.268 41 276 41Z" fill="white"/>
</svg>
