<?xml version="1.0" standalone="no"?>
<!DOCTYPE svg PUBLIC "-//W3C//DTD SVG 20010904//EN"
 "http://www.w3.org/TR/2001/REC-SVG-20010904/DTD/svg10.dtd">
<svg version="1.0" xmlns="http://www.w3.org/2000/svg"
 width="192.000000pt" height="192.000000pt" viewBox="0 0 192.000000 192.000000"
 preserveAspectRatio="xMidYMid meet">
<metadata>
Created by potrace 1.11, written by Peter Selinger 2001-2013
</metadata>
<g transform="translate(0.000000,192.000000) scale(0.100000,-0.100000)"
fill="#000000" stroke="none">
<path d="M1735 1754 c-60 -62 -109 -117 -107 -124 1 -6 -1 -9 -6 -6 -12 7
-164 -149 -154 -159 4 -5 2 -5 -4 -2 -6 3 -24 -7 -39 -23 -15 -16 -33 -26 -39
-23 -6 3 -8 3 -4 -2 4 -4 -14 -30 -41 -56 -27 -26 -48 -56 -47 -66 1 -14 -5
-17 -26 -15 -21 2 -26 -1 -22 -13 4 -10 0 -15 -11 -15 -9 0 -13 -4 -10 -10 3
-5 -1 -10 -10 -10 -11 0 -15 -5 -12 -14 4 -11 -1 -12 -28 -3 -24 7 -32 14 -28
26 4 13 3 14 -5 1 -13 -17 -6 -30 14 -30 8 0 12 -5 9 -10 -4 -6 -3 -10 2 -9 4
1 16 1 27 0 16 -1 16 -3 -5 -20 l-23 -19 27 1 c16 0 24 4 20 10 -3 6 -1 7 6 3
19 -12 2 -26 -30 -22 -26 3 -29 1 -24 -18 5 -19 5 -19 -5 -3 -6 9 -8 21 -5 27
3 5 -4 14 -15 20 -11 6 -20 8 -20 4 0 -3 -6 -1 -14 5 -11 9 -13 6 -13 -14 0
-20 2 -23 13 -14 7 6 19 9 26 6 8 -3 6 -6 -5 -6 -10 -1 -15 -6 -12 -11 4 -6 3
-10 -2 -9 -20 3 -27 -2 -13 -11 12 -8 11 -10 -5 -7 -11 1 -26 7 -34 11 -11 7
-13 5 -9 -6 4 -8 2 -21 -2 -29 -5 -8 -5 -19 1 -26 8 -9 4 -11 -16 -7 -24 4
-25 3 -14 -18 l11 -23 -21 23 c-25 25 -43 29 -35 7 4 -8 11 -12 17 -8 5 3 7 1
4 -4 -8 -13 17 -36 28 -25 5 4 5 1 1 -5 -5 -10 -11 -10 -26 0 -11 6 -20 15
-20 20 0 4 -5 5 -10 2 -6 -4 -7 -11 -4 -17 5 -7 2 -8 -5 -3 -9 5 -10 10 -2 18
18 18 12 31 -6 16 -16 -12 -16 -12 -6 1 6 8 12 20 13 25 1 6 7 9 14 7 7 -1 19
4 26 13 10 12 7 14 -20 10 -18 -2 -29 -1 -26 2 3 4 -2 16 -11 27 -18 21 -18
21 3 3 20 -16 22 -16 28 -2 8 23 8 27 -4 20 -6 -4 -7 1 -3 12 6 16 5 17 -13 3
-17 -13 -18 -13 -8 0 6 8 10 23 9 33 -2 9 0 15 5 12 4 -3 14 3 21 12 12 15 12
16 -4 10 -15 -5 -16 -4 -7 13 15 28 12 32 -12 19 -20 -10 -19 -8 5 16 27 28
30 48 3 26 -10 -8 -16 -9 -21 -1 -4 6 -1 9 6 8 8 -2 14 7 15 20 1 12 -2 22 -6
22 -16 0 -20 32 -6 51 12 18 14 18 27 3 11 -14 10 -15 -6 -12 -10 1 -20 -4
-22 -12 -3 -9 -1 -11 4 -5 11 14 47 13 65 -2 12 -10 18 -8 36 16 20 28 20 30
3 45 -10 9 -21 16 -25 16 -5 0 2 -9 15 -20 29 -24 18 -26 -17 -4 -19 13 -22
20 -13 30 6 8 15 11 20 8 5 -3 9 0 9 6 0 7 -8 9 -22 5 -22 -7 -22 -6 -6 11 11
11 21 14 30 8 8 -5 0 3 -17 18 -16 15 -25 28 -19 28 5 0 15 -5 20 -10 7 -7 11
-6 11 4 0 8 -4 13 -9 10 -7 -5 -12 10 -9 29 1 4 -15 0 -35 -8 -20 -8 -38 -15
-40 -15 -2 0 -4 -5 -4 -11 0 -8 5 -7 15 1 13 11 20 9 40 -10 27 -25 26 -41 -1
-19 -9 8 -30 14 -46 15 -23 1 -26 -1 -17 -12 6 -8 15 -12 19 -9 4 2 7 -5 6
-18 -1 -19 -7 -22 -46 -22 -25 0 -51 -4 -57 -8 -7 -5 -13 -4 -13 2 0 5 9 13
20 16 11 3 20 11 20 16 0 6 -5 7 -10 4 -5 -3 -10 -1 -10 5 0 7 9 9 23 5 21 -6
21 -6 3 9 -15 12 -16 16 -5 17 8 1 19 2 24 3 12 1 83 56 73 56 -14 0 -58 -24
-58 -32 0 -4 -5 -8 -12 -8 -9 0 -9 3 0 12 7 7 12 16 12 22 0 6 -5 5 -12 -2
-19 -19 -25 -14 -23 16 4 38 16 72 26 72 10 0 8 22 -2 30 -3 3 2 13 11 22 16
17 17 17 14 -5 -1 -12 -3 -23 -4 -24 -2 -2 -3 -7 -4 -12 0 -5 -4 -13 -8 -16
-4 -4 -3 -16 2 -25 10 -19 -10 -47 -23 -33 -4 3 -7 1 -7 -5 0 -16 13 -15 29 1
11 10 12 9 6 -2 -6 -10 -4 -12 5 -6 9 6 11 4 5 -6 -4 -8 1 -6 11 5 14 13 15
20 7 23 -20 7 -15 26 5 19 15 -5 15 -4 2 6 -17 14 -19 26 -6 47 5 8 4 16 -1
20 -13 8 -13 41 0 41 6 0 8 3 5 6 -4 3 -20 -2 -37 -10 -38 -20 -55 -20 -18 0
15 8 25 19 21 25 -3 6 5 8 21 5 21 -4 24 -2 16 8 -6 7 -7 17 -3 21 4 5 1 5 -6
1 -7 -4 -9 -12 -6 -18 4 -7 2 -8 -4 -4 -15 9 -15 12 4 30 9 9 11 16 4 16 -6 0
-8 5 -5 10 3 6 1 10 -5 10 -11 0 -103 -88 -350 -333 -51 -49 -92 -83 -95 -77
-5 8 -11 8 -20 0 -9 -7 -16 -6 -26 7 -12 15 -12 16 4 10 15 -6 16 -4 7 14 -6
11 -18 18 -27 17 -9 -2 -18 3 -21 11 -3 8 0 11 7 7 7 -5 9 -1 5 9 -8 19 -30
14 -26 -7 1 -8 -5 -15 -13 -15 -19 0 -19 7 2 37 16 24 16 24 -1 10 -18 -14
-18 -13 -12 10 6 21 5 22 -4 8 -6 -10 -16 -18 -22 -18 -7 0 -6 5 2 15 10 12
10 15 0 15 -10 0 -10 3 -1 14 9 11 9 16 0 22 -7 4 -9 3 -5 -4 3 -6 -2 -16 -13
-21 -28 -16 -39 -13 -17 4 16 12 17 17 6 30 -7 8 -16 13 -20 10 -12 -7 -28 18
-25 38 3 15 1 16 -11 6 -7 -6 -12 -15 -9 -19 3 -5 1 -11 -5 -15 -5 -3 -10 -1
-10 6 0 7 -3 9 -7 6 -3 -4 -13 -1 -22 6 -14 10 -14 10 -4 -4 7 -9 10 -19 6
-23 -4 -4 1 -4 12 0 15 6 17 4 12 -10 -4 -10 -3 -15 3 -11 6 4 9 -4 7 -17 -1
-13 3 -22 10 -21 6 1 14 -4 17 -12 7 -19 -8 -19 -28 0 -8 9 -17 11 -21 6 -3
-6 3 -14 12 -20 10 -6 15 -11 10 -11 -4 0 -16 5 -26 12 -18 11 -18 13 -3 24
14 11 15 16 5 31 -7 10 -21 35 -30 56 -11 22 -25 37 -35 37 -10 0 -18 4 -18 9
0 6 12 6 31 -1 16 -6 28 -16 26 -22 -7 -18 42 -14 53 4 12 18 13 40 2 25 -4
-5 -18 -11 -32 -13 -19 -2 -22 0 -12 10 6 6 12 17 12 23 0 5 -5 2 -11 -7 -5
-10 -15 -18 -20 -18 -6 0 -7 6 -2 13 12 20 12 37 0 34 -7 -1 -11 5 -11 14 1
11 -5 15 -17 12 -12 -3 -19 0 -19 8 -1 8 -7 3 -14 -10 -8 -15 -16 -20 -20 -12
-4 6 -3 11 2 11 5 0 12 10 15 23 6 22 6 22 -9 2 -15 -19 -15 -19 -10 7 2 15 2
27 -2 27 -19 -3 -33 2 -27 10 3 5 1 12 -5 16 -7 4 -10 -280 -10 -874 0 -485 3
-881 6 -881 4 0 69 63 146 141 120 122 137 143 126 157 -10 14 -10 15 2 5 20
-18 28 -16 35 7 3 11 10 20 14 20 11 0 141 132 141 143 0 4 4 6 9 2 5 -3 12 4
16 15 3 11 13 20 21 20 8 0 14 4 14 10 0 5 12 16 26 23 17 9 23 17 15 21 -14
9 -14 26 0 26 5 0 7 -4 4 -10 -12 -19 8 -10 31 15 15 16 21 31 17 42 -6 15 -5
16 9 3 9 -8 13 -19 10 -24 -3 -5 0 -6 6 -2 6 4 9 13 5 21 -5 14 6 19 35 16 7
-1 21 4 33 12 17 12 17 15 5 20 -9 4 -15 1 -13 -5 1 -7 -6 -14 -15 -16 -22 -4
-24 16 -3 24 8 4 13 10 10 14 -3 5 0 12 6 16 8 4 9 3 5 -4 -3 -6 2 -16 13 -21
26 -14 28 -14 28 4 0 9 -6 14 -12 11 -6 -2 -12 2 -12 10 0 7 3 11 6 9 4 -2 15
3 26 11 19 14 19 14 -1 14 -16 0 -15 2 6 13 14 7 27 9 28 5 7 -15 18 -8 18 12
0 13 -5 19 -14 15 -7 -3 -10 0 -7 6 4 5 16 7 27 3 18 -5 19 -4 8 18 -11 22
-11 22 10 -2 21 -25 22 -25 17 -2 -3 12 -1 20 3 17 5 -3 11 -1 15 5 6 10 -9
15 -30 10 -5 -1 -6 2 -2 6 14 14 32 12 50 -6 17 -17 17 -18 1 -17 -9 1 -19 -4
-21 -11 -3 -8 1 -10 12 -5 16 5 16 4 -1 -15 -9 -12 -21 -19 -25 -17 -4 3 -9
-2 -13 -10 -6 -18 -1 -19 24 -5 13 7 21 5 31 -7 8 -9 9 -14 4 -11 -18 11 -39
-9 -42 -39 -4 -27 -4 -27 11 -8 8 11 18 17 22 12 4 -4 2 -7 -4 -7 -7 0 -12 -5
-12 -11 0 -5 5 -7 11 -3 7 4 7 -1 -1 -16 -10 -18 -9 -24 7 -36 17 -14 17 -14
-4 -5 -29 15 -32 14 -29 -6 2 -9 9 -19 16 -21 8 -3 10 0 5 8 -5 8 -4 11 3 7
14 -9 7 -43 -8 -39 -8 2 -10 -3 -5 -15 4 -10 9 -30 9 -45 1 -15 6 -31 10 -35
5 -4 6 -3 2 4 -3 6 -2 14 3 18 5 3 8 14 6 25 -2 12 0 18 5 15 9 -6 8 -24 -3
-41 -4 -7 1 -18 10 -25 15 -12 16 -12 10 3 -3 10 -2 20 2 22 5 3 8 -13 7 -35
-2 -45 3 -53 21 -33 8 8 9 15 3 19 -6 3 -10 12 -10 18 0 7 5 4 11 -6 6 -9 14
-15 19 -12 5 3 12 0 16 -6 4 -7 3 -10 -2 -7 -5 3 -20 -5 -34 -18 -13 -13 -19
-24 -13 -24 7 0 14 4 18 10 3 5 13 6 21 3 11 -4 12 -8 4 -13 -17 -10 -55 -7
-55 5 0 15 -15 35 -25 35 -6 0 -1 -15 9 -32 10 -18 17 -43 16 -56 -1 -12 3
-21 9 -19 6 2 10 14 8 27 -1 15 2 21 12 17 7 -3 20 0 27 6 7 7 6 3 -4 -9 -22
-27 -22 -40 1 -23 15 13 16 12 4 -3 -8 -9 -11 -22 -7 -29 6 -8 2 -8 -13 0 -16
8 -25 6 -46 -10 -20 -15 -24 -17 -20 -5 4 12 2 15 -9 10 -16 -6 -50 33 -41 48
8 13 24 9 18 -5 -3 -8 1 -19 9 -25 11 -9 14 -8 14 3 0 8 -4 12 -9 9 -4 -3 -8
-1 -8 5 0 5 5 13 10 16 14 9 2 25 -14 19 -7 -3 -18 2 -25 10 -11 12 -8 14 13
12 34 -4 39 -9 40 -47 1 -18 6 -34 12 -36 11 -4 11 37 -1 73 -5 16 -14 20 -39
20 -18 -1 -40 -7 -48 -13 -15 -13 -28 -8 -28 9 0 5 4 7 9 4 5 -3 14 1 21 9 7
9 21 13 30 10 18 -6 50 18 50 37 0 6 -3 8 -6 5 -4 -3 -15 -2 -25 4 -16 8 -17
14 -8 30 6 12 8 23 6 26 -3 2 -8 -5 -12 -16 -3 -12 -13 -21 -21 -21 -8 0 -17
0 -21 -1 -4 0 -9 4 -11 9 -2 6 4 9 13 8 10 0 23 8 31 19 12 19 12 21 -6 21
-13 0 -16 -4 -10 -12 6 -6 7 -14 3 -17 -13 -14 -21 -6 -18 18 2 24 1 25 -16 9
-11 -10 -19 -12 -19 -6 0 6 9 16 20 22 11 6 20 16 20 22 0 6 -10 3 -22 -8 -12
-10 -18 -13 -13 -5 6 10 4 12 -5 6 -9 -5 -11 -4 -6 3 5 8 2 10 -9 6 -14 -6
-14 -8 2 -20 15 -11 15 -13 2 -14 -8 0 -20 5 -25 10 -7 7 -11 6 -11 -4 0 -8 3
-13 7 -11 4 2 15 -2 25 -9 13 -9 15 -15 7 -20 -7 -4 -12 -2 -12 3 0 6 -5 11
-11 11 -8 0 -9 -4 0 -13 6 -8 8 -17 4 -20 -3 -4 -3 -7 1 -7 4 0 16 10 26 23
10 12 21 19 24 16 4 -3 -5 -18 -19 -33 -18 -20 -21 -26 -8 -24 9 2 18 -3 20
-10 3 -8 -2 -10 -14 -6 -10 3 -6 -3 10 -13 15 -11 24 -23 20 -26 -3 -4 -14 0
-23 8 -16 14 -17 14 -16 -7 0 -13 12 -31 26 -40 14 -10 21 -18 16 -18 -6 0 0
-9 12 -20 21 -20 31 -47 13 -36 -5 3 -12 -1 -15 -9 -4 -13 -2 -13 14 -5 25 13
30 13 26 -2 -1 -7 -1 -10 1 -5 3 4 9 4 14 1 6 -3 5 -11 -2 -20 -9 -11 -8 -14
2 -14 10 -1 9 -5 -4 -14 -15 -11 -15 -15 -3 -19 8 -3 13 -14 11 -24 -1 -10 2
-24 8 -30 6 -9 6 -13 -1 -13 -6 0 -14 5 -17 10 -3 6 -10 10 -16 10 -5 0 0 -9
11 -20 22 -22 27 -56 8 -62 -7 -3 -5 -7 6 -11 9 -4 15 -3 12 1 -2 4 -1 14 4
22 5 9 4 20 -3 29 -10 12 -9 13 2 6 9 -5 12 -4 7 3 -3 6 -2 13 4 17 6 4 8 11
5 16 -4 5 0 9 7 9 9 0 9 3 -2 10 -8 5 -11 10 -6 10 5 0 4 6 -1 12 -6 7 -9 21
-8 31 2 9 -1 15 -6 11 -21 -12 -6 12 16 29 26 19 50 14 41 -8 -2 -7 1 -18 7
-25 7 -7 8 -10 2 -8 -24 13 -42 -36 -23 -60 11 -13 11 -14 -1 -7 -11 6 -13 3
-9 -13 5 -16 2 -19 -11 -15 -11 4 -9 -1 7 -19 16 -17 20 -28 13 -33 -7 -3 -10
-3 -9 2 2 4 -1 8 -7 8 -5 0 -9 -3 -7 -7 1 -5 -3 -8 -9 -8 -5 0 -7 -5 -4 -10 4
-6 10 -8 14 -6 4 3 8 -1 8 -9 0 -8 -5 -11 -11 -7 -6 3 -20 8 -31 9 -17 2 -16
0 5 -12 23 -13 21 -19 -5 -16 -5 1 -2 -5 8 -13 16 -12 16 -15 3 -18 -9 -2 -12
-8 -8 -15 5 -8 63 44 172 152 93 92 171 163 178 160 7 -3 10 0 7 5 -5 9 46 63
123 132 17 14 27 30 24 34 -4 4 1 4 11 1 12 -5 17 -1 17 13 0 14 5 18 17 13
10 -4 14 -2 9 5 -3 6 -2 14 4 17 6 4 9 3 8 -2 -3 -11 37 -94 43 -89 3 3 5 -4
6 -15 2 -17 -1 -18 -13 -9 -11 10 -17 10 -29 0 -13 -11 -15 -9 -12 9 2 13 9
26 16 31 9 5 10 10 2 14 -6 4 -11 3 -11 -2 0 -5 -7 -9 -15 -9 -9 0 -14 5 -12
11 3 6 10 10 16 8 7 -1 10 2 6 8 -10 16 -23 12 -30 -10 -3 -11 -9 -19 -13 -19
-28 4 -34 -2 -16 -16 10 -8 14 -15 8 -15 -5 0 -15 5 -22 12 -9 9 -12 9 -12 0
0 -7 4 -12 8 -12 5 0 17 -6 27 -14 18 -13 17 -13 -8 -13 -14 0 -25 3 -24 7 3
12 -17 13 -21 1 -2 -6 2 -11 8 -11 9 0 9 -5 -1 -17 -12 -16 -12 -17 2 -6 9 7
19 10 22 6 4 -3 7 -1 7 6 0 7 5 9 11 5 8 -4 8 -9 0 -17 -14 -14 -14 -27 0 -27
5 0 8 4 4 9 -3 5 -1 12 5 16 10 6 13 -3 12 -40 -1 -17 0 -17 4 -2 8 27 27 20
22 -8 -3 -13 -2 -22 3 -19 4 2 13 -4 19 -13 11 -17 11 -17 6 0 -3 9 -9 24 -12
32 -4 11 -2 13 10 9 8 -3 14 -11 13 -17 -1 -7 6 -12 15 -12 21 0 36 -15 17
-16 -8 -1 -16 -1 -19 -1 -3 0 -14 -12 -24 -26 -20 -27 -20 -27 0 -10 15 13 23
15 31 7 16 -16 34 -2 26 19 -6 15 -5 15 11 2 17 -13 17 -15 -4 -32 -12 -10
-19 -18 -14 -18 4 0 16 7 26 17 10 9 18 11 18 5 0 -6 -10 -18 -22 -28 -15 -10
-17 -14 -6 -11 11 4 19 -1 23 -13 3 -11 12 -19 18 -17 7 1 11 -4 10 -10 -2 -7
2 -13 7 -13 14 0 13 13 -2 29 -11 11 -10 13 2 9 21 -7 63 10 55 22 -7 11 22
26 31 17 3 -3 7 -13 9 -24 2 -10 4 -18 5 -18 1 0 3 -10 4 -22 2 -15 -6 -28
-20 -38 -21 -14 -24 -13 -34 5 -10 18 -7 22 20 33 17 8 27 17 23 21 -5 4 -8
13 -8 19 0 5 -5 12 -11 14 -7 2 -11 -6 -10 -19 1 -17 -4 -23 -19 -23 -15 0
-19 -6 -18 -23 2 -13 -1 -21 -6 -18 -11 7 -8 -20 3 -31 4 -4 6 -3 4 3 -1 7 2
11 7 10 6 0 9 -7 9 -13 -1 -7 2 -11 6 -8 11 7 31 -20 22 -29 -4 -4 -2 -6 3 -5
6 2 21 -1 33 -5 17 -6 22 -13 19 -28 -4 -16 -3 -17 9 -7 11 9 14 8 14 -5 0 -9
5 -16 11 -16 5 0 7 -5 3 -12 -4 -6 -3 -8 3 -5 11 7 15 1734 4 1753 -3 6 -52
-36 -116 -102z m-1546 -18 c16 -19 -4 -33 -24 -16 -10 9 -16 7 -24 -7 -9 -16
-10 -15 -7 7 3 14 5 27 6 30 2 3 2 9 1 13 -2 11 33 -8 48 -27z m716 -45 c3 -5
2 -12 -3 -15 -5 -3 -9 1 -9 9 0 17 3 19 12 6z m-655 -11 c0 -5 -4 -10 -10 -10
-5 0 -10 5 -10 10 0 6 5 10 10 10 6 0 10 -4 10 -10z m-80 -20 c-8 -5 -19 -10
-25 -10 -5 0 -3 5 5 10 8 5 20 10 25 10 6 0 3 -5 -5 -10z m777 -5 c0 -8 -4
-12 -9 -9 -5 3 -6 10 -3 15 9 13 12 11 12 -6z m-757 -19 c0 -8 -4 -17 -10 -21
-5 -3 -6 -13 -3 -23 3 -9 3 -14 -1 -10 -4 3 -8 12 -10 20 -1 7 -6 20 -11 28
-8 13 -7 13 10 0 17 -14 18 -13 12 3 -3 9 -2 17 3 17 6 0 10 -6 10 -14z m120
-22 c0 4 5 4 10 1 16 -10 -10 -37 -29 -30 -11 3 -10 0 3 -10 11 -9 28 -12 39
-9 16 5 19 3 13 -11 -4 -11 0 -18 12 -22 13 -3 19 -14 19 -34 0 -21 -3 -26 -9
-17 -7 10 -9 9 -5 -2 5 -17 38 -14 49 3 4 7 8 9 9 5 1 -5 3 -12 4 -18 1 -5 3
-15 4 -22 0 -6 4 -8 8 -5 3 4 15 -1 25 -10 17 -15 20 -15 28 -3 6 8 10 10 10
4 0 -16 -25 -35 -34 -26 -5 4 -6 -2 -4 -13 2 -14 -2 -19 -14 -17 -13 2 -16 -2
-11 -15 6 -16 5 -17 -11 -3 -11 8 -14 16 -7 18 6 2 8 8 5 13 -3 6 2 20 12 32
10 12 12 16 4 10 -19 -17 -31 -16 -24 1 8 21 -17 32 -31 13 -11 -15 -13 -14
-24 6 -7 13 -22 23 -34 24 l-22 2 22 -12 c21 -12 21 -13 4 -36 -21 -27 -47
-21 -31 8 5 10 7 29 5 42 -5 26 10 58 21 46 4 -3 2 -12 -4 -20 -8 -10 -7 -13
8 -14 10 -1 25 6 32 15 9 11 10 14 1 8 -7 -4 -13 -3 -13 2 0 18 -34 24 -45 8
-8 -10 -16 -12 -26 -5 -11 7 -11 9 4 9 9 0 17 3 17 6 0 13 -22 44 -28 40 -4
-2 -6 9 -6 25 2 43 2 44 24 24 11 -10 20 -15 20 -11z m-91 -17 c6 -8 8 -17 4
-20 -10 -10 -33 -8 -33 3 0 5 8 7 18 4 14 -5 14 -3 -2 10 -11 9 -15 16 -9 16
6 0 16 -6 22 -13z m622 -44 c13 -16 12 -17 -3 -4 -10 7 -18 15 -18 17 0 8 8 3
21 -13z m59 3 c0 -2 -7 -7 -16 -10 -8 -3 -12 -2 -9 4 6 10 25 14 25 6z m120 0
c0 -11 -19 -15 -25 -6 -3 5 1 10 9 10 9 0 16 -2 16 -4z m-819 -38 c-10 -11
-11 -9 -5 6 6 15 4 17 -6 11 -9 -6 -11 -4 -5 4 5 9 10 10 18 2 8 -8 7 -14 -2
-23z m25 -3 c-3 -8 0 -15 6 -15 6 0 9 -3 5 -6 -10 -11 -26 6 -20 21 3 8 7 15
10 15 3 0 3 -7 -1 -15z m772 -7 c16 -16 15 -31 0 -22 -9 6 -9 3 0 -9 8 -9 11
-21 8 -26 -4 -5 -2 -12 4 -16 17 -10 11 -25 -7 -19 -15 5 -15 4 -3 -4 9 -7 18
-8 26 -1 17 14 28 -6 15 -28 -6 -10 -11 -13 -11 -7 0 6 -12 16 -26 23 -15 6
-24 17 -21 25 4 9 -2 12 -18 8 -12 -2 -26 2 -30 8 -5 9 -1 10 15 5 15 -5 20
-3 16 3 -3 6 -1 14 5 17 5 4 8 13 5 21 -3 8 0 14 7 14 8 0 6 4 -3 10 -8 5 -10
10 -4 10 5 0 15 -5 22 -12z m-712 -16 c1 -7 0 -8 -3 -2 -2 5 -9 10 -14 10 -6
0 -8 -4 -5 -9 3 -5 -5 -16 -19 -25 -14 -9 -25 -12 -25 -7 0 5 9 12 20 16 11 3
19 9 19 13 -4 25 22 29 27 4z m-78 -17 c-3 -3 -9 2 -12 12 -6 14 -5 15 5 6 7
-7 10 -15 7 -18z m247 -5 c-3 -5 -11 -10 -16 -10 -6 0 -7 5 -4 10 3 6 11 10
16 10 6 0 7 -4 4 -10z m-165 -10 c0 -5 -4 -10 -10 -10 -5 0 -10 5 -10 10 0 6
5 10 10 10 6 0 10 -4 10 -10z m500 0 c0 -5 -5 -10 -11 -10 -5 0 -7 5 -4 10 3
6 8 10 11 10 2 0 4 -4 4 -10z m35 0 c3 -5 1 -10 -4 -10 -6 0 -11 5 -11 10 0 6
2 10 4 10 3 0 8 -4 11 -10z m-555 -21 c11 -8 9 -9 -10 -4 -20 6 -23 5 -12 -6
6 -7 12 -21 12 -31 0 -10 5 -17 12 -15 6 1 14 -6 16 -15 2 -10 -1 -18 -7 -18
-6 0 -7 7 -4 17 4 11 3 14 -5 9 -7 -4 -14 0 -18 11 -3 10 -9 25 -14 34 -14 27
3 37 30 18z m108 -41 c-9 -20 -11 -34 -2 -25 4 3 15 2 26 -4 14 -8 17 -14 9
-23 -6 -7 -7 -17 -3 -21 4 -5 1 -5 -6 -1 -7 5 -11 14 -8 21 3 10 -2 12 -19 9
-13 -2 -26 0 -30 6 -4 6 1 7 12 4 16 -5 16 -4 -1 10 -20 16 -20 16 0 16 15 0
16 2 4 10 -9 6 -20 5 -30 -3 -8 -6 -6 -2 4 11 11 12 16 22 12 22 -4 0 -5 4 -1
10 10 17 43 -23 33 -42z m30 17 c1 -19 -3 -35 -7 -35 -5 0 -9 16 -9 35 0 19 3
35 7 35 4 0 8 -16 9 -35z m474 23 c-16 -16 -15 -28 2 -28 8 0 18 -5 22 -12 5
-8 2 -9 -12 -4 -10 5 -24 9 -29 9 -6 0 -11 8 -11 18 0 10 4 15 8 13 4 -3 8 0
8 5 0 6 5 11 12 11 9 0 9 -3 0 -12z m31 -3 c-3 -9 -2 -15 3 -14 29 5 34 -2 19
-24 -8 -13 -12 -27 -8 -31 4 -4 0 -4 -10 -1 -14 6 -15 9 -2 22 16 15 20 34 8
32 -22 -4 -32 3 -27 16 4 8 10 15 15 15 4 0 6 -7 2 -15z m-688 -14 c3 -5 2
-12 -3 -15 -5 -3 -9 1 -9 9 0 17 3 19 12 6z m79 -30 c-2 -3 -12 3 -22 13 -16
17 -16 18 5 5 12 -7 20 -15 17 -18z m1109 2 c-5 -12 -3 -14 7 -8 9 6 11 4 5
-4 -5 -9 -11 -9 -17 -3 -6 6 -7 15 -4 21 11 17 16 13 9 -6z m-534 -17 c9 -11
9 -16 -1 -22 -7 -4 -10 -4 -6 1 4 4 3 14 -3 22 -6 7 -9 13 -6 13 2 0 10 -6 16
-14z m-634 -5 c3 -5 2 -12 -3 -15 -5 -3 -9 1 -9 9 0 17 3 19 12 6z m85 -1 c0
-5 -4 -10 -10 -10 -5 0 -10 5 -10 10 0 6 5 10 10 10 6 0 10 -4 10 -10z m517
-7 c-4 -3 -1 -13 6 -22 11 -14 10 -14 -5 -2 -16 12 -16 31 -1 31 4 0 3 -3 0
-7z m553 -3 c8 -5 11 -10 5 -10 -5 0 -17 5 -25 10 -8 5 -10 10 -5 10 6 0 17
-5 25 -10z m-1132 -35 c-3 -3 -9 2 -12 12 -6 14 -5 15 5 6 7 -7 10 -15 7 -18z
m28 -7 c-18 -26 -22 -17 -5 14 6 11 13 17 16 15 3 -3 -2 -16 -11 -29z m50 -1
c-3 -24 -28 -31 -32 -9 -1 7 0 8 3 2 8 -17 19 -11 20 10 1 13 -2 18 -9 14 -7
-4 -8 -2 -4 5 11 17 26 3 22 -22z m549 23 c-3 -5 -12 -10 -18 -10 -7 0 -6 4 3
10 19 12 23 12 15 0z m45 5 c0 -1 -10 -10 -22 -21 -14 -12 -18 -13 -10 -3 6 9
10 18 7 21 -3 2 2 5 10 5 8 0 15 -1 15 -2z m-563 -24 c0 -11 -5 -18 -9 -15 -4
3 -5 11 -1 19 7 21 12 19 10 -4z m1007 0 c-9 -9 -34 -9 -34 -1 0 5 9 8 20 7
10 -1 17 -3 14 -6z m-1104 -46 c0 -5 -5 -3 -10 5 -5 8 -10 20 -10 25 0 6 5 3
10 -5 5 -8 10 -19 10 -25z m647 15 c1 -11 -2 -20 -7 -20 -6 0 -7 17 -1 38 3 8
7 -1 8 -18z m398 11 c3 -5 2 -12 -3 -15 -5 -3 -9 1 -9 9 0 17 3 19 12 6z m85
-1 c0 -5 -4 -10 -10 -10 -5 0 -10 5 -10 10 0 6 5 10 10 10 6 0 10 -4 10 -10z
m-1106 -22 c-5 -8 -1 -9 12 -4 14 5 16 4 7 -5 -6 -6 -16 -8 -22 -5 -14 9 -14
26 0 26 5 0 7 -5 3 -12z m1140 0 c-3 -5 -10 -6 -15 -3 -5 4 -9 1 -9 -6 0 -7
-3 -10 -6 -6 -9 9 3 24 20 24 8 0 13 -4 10 -9z m19 -31 c4 3 7 1 7 -5 0 -17
-16 -15 -31 6 -12 15 -12 16 2 5 9 -7 19 -10 22 -6z m-589 -5 c3 -5 -1 -9 -9
-9 -8 0 -12 4 -9 9 3 4 7 8 9 8 2 0 6 -4 9 -8z m453 -7 c0 -8 -4 -12 -9 -9 -5
3 -6 10 -3 15 9 13 12 11 12 -6z m36 -21 c-3 -9 3 -12 23 -8 16 3 26 2 22 -1
-3 -4 -13 -7 -21 -9 -8 -1 -23 -8 -33 -16 -15 -11 -16 -11 -7 0 8 8 9 19 3 30
-6 12 -5 17 5 17 7 0 11 -6 8 -13z m105 -25 c-3 -8 -7 -3 -11 10 -4 17 -3 21
5 13 5 -5 8 -16 6 -23z m-540 -18 c-7 -9 -13 -18 -15 -20 -1 -2 -1 5 0 16 0
11 7 20 14 20 10 0 10 -4 1 -16z m511 5 c10 -12 8 -17 -7 -25 -14 -7 -19 -7
-19 4 0 8 7 11 16 7 14 -5 14 -3 2 11 -7 9 -11 17 -8 17 2 0 10 -6 16 -14z
m-589 0 c0 -2 -6 -9 -14 -15 -11 -9 -16 -9 -22 0 -4 7 -3 9 4 5 6 -3 13 -2 17
4 6 10 15 14 15 6z m647 -18 c-3 -8 -6 -5 -6 6 -1 11 2 17 5 13 3 -3 4 -12 1
-19z m-213 4 c3 -5 -1 -9 -9 -9 -8 0 -12 4 -9 9 3 4 7 8 9 8 2 0 6 -4 9 -8z
m177 -15 c-10 -9 -11 -8 -5 6 3 10 9 15 12 12 3 -3 0 -11 -7 -18z m-570 -4
c13 -16 12 -17 -3 -4 -10 7 -18 15 -18 17 0 8 8 3 21 -13z m476 1 c-3 -3 -12
-4 -19 -1 -8 3 -5 6 6 6 11 1 17 -2 13 -5z m-496 -21 c13 -16 12 -17 -3 -4
-10 7 -18 15 -18 17 0 8 8 3 21 -13z m273 -1 c3 -5 -1 -9 -9 -9 -8 0 -12 4 -9
9 3 4 7 8 9 8 2 0 6 -4 9 -8z m56 -2 c0 -5 -4 -10 -10 -10 -5 0 -10 5 -10 10
0 6 5 10 10 10 6 0 10 -4 10 -10z m30 0 c0 -5 -4 -10 -10 -10 -5 0 -10 5 -10
10 0 6 5 10 10 10 6 0 10 -4 10 -10z m154 -6 c3 -8 2 -12 -4 -9 -6 3 -10 10
-10 16 0 14 7 11 14 -7z m106 6 c0 -5 -4 -10 -10 -10 -5 0 -10 5 -10 10 0 6 5
10 10 10 6 0 10 -4 10 -10z m-559 -17 c13 -16 12 -17 -3 -4 -10 7 -18 15 -18
17 0 8 8 3 21 -13z m305 -18 c-9 -9 -16 -21 -16 -26 0 -5 -3 -8 -7 -8 -21 3
-34 -2 -28 -11 4 -6 10 -8 15 -5 15 9 22 -15 10 -30 -10 -12 -10 -15 0 -15 8
0 11 -2 8 -5 -9 -9 -36 6 -42 22 -5 12 -4 13 7 5 8 -7 17 -9 20 -5 9 9 9 23 0
22 -23 -4 -35 3 -30 15 8 20 -4 28 -21 13 -11 -9 -11 -4 2 15 15 23 24 27 47
23 15 -3 31 0 34 6 4 6 9 8 12 5 3 -3 -2 -12 -11 -21z m209 7 c-3 -3 -11 0
-18 7 -9 10 -8 11 6 5 10 -3 15 -9 12 -12z m-370 -2 c-3 -5 -1 -10 6 -10 7 0
10 -3 6 -6 -9 -9 -28 6 -22 17 4 5 8 9 11 9 3 0 2 -4 -1 -10z m62 -8 c-10 -10
-14 -22 -10 -25 3 -4 1 -7 -5 -7 -7 0 -12 3 -12 7 0 8 31 43 38 43 3 0 -2 -8
-11 -18z m131 -4 c-2 -7 3 -12 10 -10 8 1 11 -2 7 -8 -4 -6 -13 -5 -25 2 -14
9 -16 14 -7 20 16 10 17 10 15 -4z m142 6 c0 -8 -19 -13 -24 -6 -3 5 1 9 9 9
8 0 15 -2 15 -3z m57 -16 c-3 -8 -6 -5 -6 6 -1 11 2 17 5 13 3 -3 4 -12 1 -19z
m-527 -3 c0 -2 -6 -8 -13 -14 -10 -8 -14 -7 -14 2 0 8 6 14 14 14 7 0 13 -1
13 -2z m155 -25 c10 -11 16 -20 13 -20 -3 0 -13 9 -23 20 -10 11 -16 20 -13
20 3 0 13 -9 23 -20z m170 2 c11 -9 27 -26 35 -37 14 -19 14 -19 -2 -6 -14 11
-21 11 -33 1 -20 -16 -30 -7 -33 29 -3 35 4 38 33 13z m265 -4 c0 -4 -4 -8 -9
-8 -6 0 -12 4 -15 8 -3 5 1 9 9 9 8 0 15 -4 15 -9z m-113 -14 c-3 -3 -12 -4
-19 -1 -8 3 -5 6 6 6 11 1 17 -2 13 -5z m38 -4 c3 -6 -1 -7 -9 -4 -18 7 -21
14 -7 14 6 0 13 -4 16 -10z m-366 -13 c-2 -1 -13 -9 -24 -17 -19 -14 -19 -14
-6 3 7 9 18 17 24 17 6 0 8 -1 6 -3z m25 -25 c3 -5 -1 -9 -9 -9 -8 0 -12 4 -9
9 3 4 7 8 9 8 2 0 6 -4 9 -8z m-420 -14 c-5 -8 -2 -9 10 -5 11 4 15 3 10 -4
-4 -8 1 -9 17 -4 13 4 20 4 16 -1 -4 -4 -20 -8 -34 -9 -15 0 -28 -5 -30 -11
-2 -6 9 -10 27 -9 16 1 30 -2 30 -7 0 -4 -12 -7 -27 -6 -16 1 -38 -4 -50 -10
-15 -8 -24 -9 -28 -2 -4 6 -3 10 2 9 25 -4 35 3 30 21 -3 11 1 27 10 35 17 18
27 20 17 3z m-284 -12 c0 -2 -8 -10 -17 -17 -16 -13 -17 -12 -4 4 13 16 21 21
21 13z m81 -13 c13 -16 12 -17 -3 -5 -9 8 -23 10 -29 6 -8 -4 -9 -3 -5 4 10
17 21 15 37 -5z m156 -3 c1 -11 -2 -20 -5 -20 -4 0 -8 9 -9 20 -1 11 2 20 5
20 4 0 8 -9 9 -20z m121 -10 c-7 -11 -15 -15 -17 -9 -2 6 3 15 10 20 20 12 21
11 7 -11z m79 -3 c1 -11 1 -18 0 -16 -2 2 -8 11 -15 20 -9 12 -9 16 1 16 7 0
14 -9 14 -20z m-303 -13 c7 -19 2 -18 -19 6 -16 17 -16 20 -3 15 9 -4 19 -13
22 -21z m67 9 c13 -16 12 -17 -3 -4 -10 7 -18 15 -18 17 0 8 8 3 21 -13z
m-147 -9 c3 -8 2 -12 -4 -9 -6 3 -10 10 -10 16 0 14 7 11 14 -7z m345 13 c-2
-1 -13 -9 -24 -17 -19 -14 -19 -14 -6 3 7 9 18 17 24 17 6 0 8 -1 6 -3z m236
-27 c3 -5 1 -10 -4 -10 -6 0 -11 5 -11 10 0 6 2 10 4 10 3 0 8 -4 11 -10z
m-320 -24 c17 -18 20 -27 11 -36 -8 -8 -2 -10 24 -5 23 3 30 2 21 -4 -8 -5
-25 -8 -38 -6 -14 1 -22 -2 -20 -9 2 -6 12 -10 22 -8 9 2 14 -1 11 -7 -4 -5
-14 -9 -24 -8 -13 1 -18 9 -18 28 0 16 4 25 9 22 5 -3 8 0 5 8 -5 16 -37 19
-58 4 -13 -9 -13 -8 -1 8 7 9 10 17 5 17 -8 0 16 20 25 20 2 0 14 -11 26 -24z
m33 6 c2 -7 -1 -12 -8 -12 -6 0 -9 4 -6 9 4 5 1 12 -4 14 -6 3 -5 4 2 3 6 -1
14 -8 16 -14z m59 0 c-10 -10 -15 -21 -12 -23 2 -3 -7 -5 -20 -5 -24 0 -25 11
-2 11 7 1 11 7 9 14 -1 7 2 10 7 7 5 -4 12 -2 16 4 3 5 9 10 12 10 3 0 -1 -8
-10 -18z m190 -31 c1 -11 -6 -26 -15 -33 -15 -11 -15 -11 -5 2 14 19 12 42 -7
66 -14 18 -14 18 6 2 11 -9 20 -26 21 -37z m-537 27 c0 -3 -9 -6 -20 -5 -11 1
-20 5 -20 9 0 3 9 6 20 5 11 -1 20 -5 20 -9z m141 -1 c-6 -8 -7 -18 -3 -22 4
-5 1 -5 -6 -1 -10 6 -10 11 -1 22 6 8 14 14 16 14 3 0 0 -6 -6 -13z m-81 -18
c0 -5 -4 -9 -8 -9 -5 0 -9 7 -9 15 0 8 4 12 9 9 4 -3 8 -9 8 -15z m520 -1 c0
-4 -4 -8 -9 -8 -6 0 -12 4 -15 8 -3 5 1 9 9 9 8 0 15 -4 15 -9z m-615 -18 c3
-6 -1 -7 -9 -4 -18 7 -21 14 -7 14 6 0 13 -4 16 -10z m60 0 c-3 -5 -12 -10
-18 -10 -7 0 -6 4 3 10 19 12 23 12 15 0z m205 0 c0 -5 -2 -10 -4 -10 -3 0 -8
5 -11 10 -3 6 -1 10 4 10 6 0 11 -4 11 -10z m388 -11 c9 -12 9 -16 -1 -16 -7
0 -14 9 -14 20 -1 11 -1 18 0 16 2 -2 8 -11 15 -20z m-560 -2 c8 -10 6 -13
-11 -14 -12 0 -16 1 -9 4 6 3 10 9 6 14 -8 14 2 11 14 -4z m-38 -13 c0 0 -8
-8 -18 -17 -16 -15 -18 -15 -18 1 0 10 8 18 18 18 10 0 18 -1 18 -2z m110 -14
c12 -7 10 -9 -8 -7 -12 0 -22 5 -22 9 0 11 12 10 30 -2z m90 -4 c-7 -7 -13 -7
-20 0 -6 6 -3 10 10 10 13 0 16 -4 10 -10z m344 3 c3 -3 -5 -5 -19 -5 -13 0
-22 3 -19 7 4 8 30 6 38 -2z m-539 -19 c-3 -5 -12 -10 -18 -10 -7 0 -6 4 3 10
19 12 23 12 15 0z m635 -4 c-7 -7 -13 -7 -20 0 -6 6 -3 10 10 10 13 0 16 -4
10 -10z m-390 0 c0 -2 -7 -7 -16 -10 -8 -3 -12 -2 -9 4 6 10 25 14 25 6z m267
-45 c1 -11 -6 -26 -15 -33 -15 -11 -15 -11 -5 2 14 19 12 42 -7 66 -14 18 -14
18 6 2 11 -9 20 -26 21 -37z m-544 24 c4 -8 3 -16 -1 -19 -4 -3 -9 4 -9 15 -2
23 3 25 10 4z m182 -23 c-3 -3 -11 0 -18 7 -9 10 -8 11 6 5 10 -3 15 -9 12
-12z m-97 -17 c-3 -3 -9 2 -12 12 -6 14 -5 15 5 6 7 -7 10 -15 7 -18z m32 10
c-7 -9 -15 -13 -19 -10 -3 3 1 10 9 15 21 14 24 12 10 -5z m529 2 c8 -10 7
-14 -2 -14 -8 0 -14 6 -14 14 0 7 1 13 2 13 2 0 8 -6 14 -13z m546 -26 c-6 -5
-25 10 -25 20 0 5 6 4 14 -3 8 -7 12 -15 11 -17z m-1165 3 c0 -8 -19 -13 -24
-6 -3 5 1 9 9 9 8 0 15 -2 15 -3z m556 -19 c-1 -13 -4 -27 -7 -30 -5 -4 -4 41
0 53 4 10 8 -2 7 -23z m35 8 c13 -16 12 -17 -3 -4 -10 7 -18 15 -18 17 0 8 8
3 21 -13z m544 7 c3 -5 2 -10 -4 -10 -5 0 -13 5 -16 10 -3 6 -2 10 4 10 5 0
13 -4 16 -10z m-1079 -19 c0 -12 -5 -17 -15 -13 -10 4 -12 1 -6 -8 6 -9 4 -11
-4 -6 -9 6 -8 13 5 27 21 23 20 23 20 0z m43 5 c9 -10 8 -15 -2 -19 -8 -3 -13
3 -13 14 0 23 0 23 15 5z m1031 -12 c0 -2 -7 -4 -15 -4 -8 0 -15 4 -15 10 0 5
7 7 15 4 8 -4 15 -8 15 -10z m21 -11 c-12 -20 -14 -14 -5 12 4 9 9 14 11 11 3
-2 0 -13 -6 -23z m-1146 -1 c-3 -3 -11 0 -18 7 -9 10 -8 11 6 5 10 -3 15 -9
12 -12z m516 1 c13 -16 12 -17 -3 -4 -10 7 -18 15 -18 17 0 8 8 3 21 -13z m95
-5 c4 -7 3 -10 -1 -5 -5 4 -18 -2 -30 -13 -17 -16 -22 -17 -22 -6 0 8 4 13 8
11 3 -3 12 2 19 10 15 18 17 18 26 3z m477 5 c8 -8 -12 -33 -26 -33 -6 0 -2 7
9 16 17 14 17 15 1 10 -11 -3 -16 -2 -12 4 7 12 19 13 28 3z m81 -19 c3 -8 2
-12 -4 -9 -6 3 -10 10 -10 16 0 14 7 11 14 -7z m-1149 -4 c3 -6 -1 -7 -9 -4
-18 7 -21 14 -7 14 6 0 13 -4 16 -10z m44 -4 c9 -11 9 -16 0 -22 -8 -5 -9 -3
-4 6 6 10 4 12 -8 7 -11 -4 -14 -2 -10 9 6 17 8 17 22 0z m1051 -6 c-6 -11
-16 -17 -22 -14 -7 5 -9 1 -5 -9 3 -10 2 -17 -4 -17 -6 0 -9 8 -7 18 2 9 10
16 16 15 7 -2 12 4 12 12 0 8 5 15 10 15 7 0 7 -7 0 -20z m40 -11 c0 -6 -4 -7
-10 -4 -5 3 -10 11 -10 16 0 6 5 7 10 4 6 -3 10 -11 10 -16z m-1106 -28 c-2
-3 -12 3 -22 13 -16 17 -16 18 5 5 12 -7 20 -15 17 -18z m1118 7 c-8 -8 -17
-9 -34 0 -22 11 -22 11 5 6 18 -4 27 -2 27 7 0 7 3 9 7 6 4 -4 1 -13 -5 -19z
m-749 0 c9 2 20 -4 23 -12 3 -9 11 -13 16 -10 6 4 9 1 6 -6 -6 -20 -28 -24
-28 -6 0 8 -5 18 -11 21 -6 4 -9 0 -7 -8 2 -9 0 -16 -4 -16 -23 -2 -29 0 -23
9 4 6 1 18 -7 27 -11 14 -11 16 2 8 8 -5 23 -8 33 -7z m778 -2 c-9 -10 -9 -16
-1 -21 6 -4 9 -12 7 -18 -2 -7 3 -21 12 -32 16 -20 16 -20 -6 -2 -12 11 -26
16 -32 13 -5 -4 -15 3 -21 14 -6 12 -7 20 -1 20 5 0 11 -7 13 -15 2 -10 7 -12
18 -5 13 9 13 11 1 19 -12 8 -12 12 -2 25 8 9 16 16 18 16 3 0 0 -6 -6 -14z
m-604 -23 c0 -9 -4 -10 -14 -2 -7 6 -13 12 -13 14 0 1 6 2 13 2 8 0 14 -6 14
-14z m537 8 c3 -4 -1 -17 -10 -27 -14 -18 -14 -18 -4 4 11 22 10 23 -12 17
-18 -5 -20 -4 -8 4 18 13 27 14 34 2z m-1101 -16 c-3 -9 -8 -14 -10 -11 -3 3
-2 9 2 15 9 16 15 13 8 -4z m1004 -12 c0 -7 -5 -13 -10 -13 -5 0 -4 -7 3 -15
10 -12 16 -13 26 -4 11 9 18 8 28 0 10 -8 16 -9 21 -1 3 5 11 10 18 10 6 0 2
-6 -8 -14 -19 -13 -18 -14 8 -13 24 2 27 5 22 27 -4 22 -4 22 6 7 12 -21 4
-51 -11 -42 -6 3 -13 -1 -16 -9 -3 -9 -10 -16 -16 -16 -5 0 -6 5 -3 10 6 10
-8 14 -34 10 -13 -2 -13 1 0 17 13 16 12 17 -2 5 -9 -7 -23 -11 -30 -9 -8 2
-11 2 -6 0 4 -3 5 -9 2 -13 -3 -5 0 -12 6 -16 8 -5 9 -3 4 6 -5 8 -3 11 6 8 8
-3 13 -11 11 -17 -1 -7 2 -10 8 -6 5 3 10 0 11 -7 0 -10 2 -10 6 -1 7 18 46
-4 39 -22 -2 -7 1 -15 7 -18 7 -3 12 5 12 18 0 13 -3 21 -7 19 -4 -2 -10 1
-13 7 -5 7 0 10 11 7 14 -2 20 -13 22 -41 4 -41 -6 -47 -32 -18 -10 11 -23 18
-29 17 -7 -2 -9 -1 -4 1 4 3 7 10 7 16 0 5 -3 8 -6 4 -8 -7 -66 21 -76 37 -4
6 -5 19 -2 29 3 10 0 17 -7 17 -7 0 -9 3 -6 7 4 3 3 11 -3 18 -6 8 -2 11 14
11 12 0 23 -6 23 -13z m-397 -29 c0 -8 -19 -13 -24 -6 -3 5 1 9 9 9 8 0 15 -2
15 -3z m560 -14 c0 -5 -4 -10 -10 -10 -5 0 -10 5 -10 10 0 6 5 10 10 10 6 0
10 -4 10 -10z m-766 -31 c-9 -16 -20 -10 -21 12 -2 17 1 18 12 9 8 -7 12 -16
9 -21z m787 7 c-10 -11 -8 -15 6 -19 16 -4 16 -5 1 -6 -23 -1 -34 19 -17 30
20 13 23 11 10 -5z m-41 -6 c0 -5 -4 -10 -10 -10 -5 0 -10 5 -10 10 0 6 5 10
10 10 6 0 10 -4 10 -10z m20 -30 c0 -5 -4 -10 -10 -10 -5 0 -10 5 -10 10 0 6
5 10 10 10 6 0 10 -4 10 -10z m39 -34 c-3 -3 -11 5 -18 17 -13 21 -12 21 5 5
10 -10 16 -20 13 -22z m-23 -5 c1 -6 0 -7 -2 -2 -6 12 -34 3 -34 -11 0 -5 5
-6 11 -2 8 5 8 1 0 -14 -6 -11 -9 -27 -6 -34 4 -9 -2 -14 -15 -15 -14 -1 -18
2 -13 10 4 7 9 23 10 37 2 14 3 30 5 36 2 14 41 10 44 -5z m-616 -11 c0 -5 -5
-10 -11 -10 -5 0 -7 5 -4 10 3 6 8 10 11 10 2 0 4 -4 4 -10z m515 -20 c3 -5 1
-10 -4 -10 -6 0 -11 5 -11 10 0 6 2 10 4 10 3 0 8 -4 11 -10z m135 -10 c13 7
21 7 26 -2 4 -6 3 -8 -2 -5 -6 3 -16 2 -24 -3 -9 -5 -19 -5 -27 2 -21 17 -27
1 -8 -19 16 -16 15 -20 -11 -26 -12 -3 -12 47 -1 61 9 11 12 10 19 -2 7 -12
14 -14 28 -6z m-761 -17 c-1 -5 0 -10 1 -13 6 -15 6 -59 -1 -54 -4 2 -6 13 -4
24 2 11 -1 22 -6 25 -5 4 -7 11 -4 16 7 11 15 12 14 2z m691 -33 c0 -5 -5 -10
-11 -10 -5 0 -7 5 -4 10 3 6 8 10 11 10 2 0 4 -4 4 -10z m60 -34 c0 -3 -4 -8
-10 -11 -5 -3 -10 -1 -10 4 0 6 5 11 10 11 6 0 10 -2 10 -4z m-687 -21 c-3 -9
-8 -14 -10 -11 -3 3 -2 9 2 15 9 16 15 13 8 -4z m763 -27 c4 -6 3 -8 -3 -5 -6
4 -16 0 -22 -7 -8 -9 -8 -17 -2 -20 5 -3 11 0 14 6 3 7 4 3 4 -9 -1 -20 -3
-21 -22 -9 -22 15 -27 41 -8 41 6 0 15 3 19 8 10 9 12 9 20 -5z m11 -50 c-3
-8 -6 -5 -6 6 -1 11 2 17 5 13 3 -3 4 -12 1 -19z"/>
<path d="M146 1742 c-3 -5 1 -9 9 -9 8 0 15 4 15 9 0 4 -4 8 -9 8 -6 0 -12 -4
-15 -8z"/>
<path d="M270 1616 c0 -3 9 -10 19 -16 15 -7 22 -7 27 2 4 7 4 10 -1 6 -4 -4
-16 -3 -26 3 -11 5 -19 7 -19 5z"/>
<path d="M310 1441 c-6 -12 -7 -21 -1 -21 10 0 24 30 17 37 -2 3 -9 -5 -16
-16z"/>
<path d="M443 1411 c-9 -15 -9 -20 0 -24 7 -3 13 5 13 19 2 29 2 29 -13 5z"/>
<path d="M980 1460 c0 -5 5 -10 11 -10 5 0 7 5 4 10 -3 6 -8 10 -11 10 -2 0
-4 -4 -4 -10z"/>
<path d="M1170 1081 c0 -14 25 -20 41 -10 8 5 12 9 9 10 -3 0 -15 2 -27 5 -13
2 -23 0 -23 -5z"/>
<path d="M1243 1026 c2 -27 11 -34 23 -15 3 6 0 18 -9 26 -13 14 -15 13 -14
-11z"/>
<path d="M690 880 c0 -5 5 -10 10 -10 6 0 10 5 10 10 0 6 -4 10 -10 10 -5 0
-10 -4 -10 -10z"/>
<path d="M977 1737 c-3 -8 -2 -20 3 -26 5 -9 8 -4 8 13 0 29 -3 32 -11 13z"/>
<path d="M986 1676 c6 -15 4 -17 -6 -11 -9 6 -11 4 -5 -4 5 -9 10 -10 18 -2 8
8 7 14 -2 24 -10 10 -11 8 -5 -7z"/>
<path d="M310 1646 c0 -2 7 -7 16 -10 8 -3 12 -2 9 4 -6 10 -25 14 -25 6z"/>
<path d="M906 1631 c-4 -5 -2 -12 3 -15 5 -4 12 -2 15 3 4 5 2 12 -3 15 -5 4
-12 2 -15 -3z"/>
<path d="M911 1518 c15 -11 15 -13 -5 -29 l-21 -18 23 2 c12 1 22 5 22 10 0 5
7 4 15 -3 8 -7 15 -9 15 -5 0 10 -49 55 -58 54 -4 0 0 -5 9 -11z"/>
<path d="M1069 1463 c-13 -16 -12 -17 4 -4 9 7 17 15 17 17 0 8 -8 3 -21 -13z"/>
<path d="M500 1460 c8 -5 20 -10 25 -10 6 0 3 5 -5 10 -8 5 -19 10 -25 10 -5
0 -3 -5 5 -10z"/>
<path d="M1175 1420 c-3 -5 -1 -10 4 -10 6 0 11 5 11 10 0 6 -2 10 -4 10 -3 0
-8 -4 -11 -10z"/>
<path d="M1050 1362 c-30 -32 -40 -53 -31 -67 3 -5 8 3 11 19 l5 28 20 -23
c17 -19 17 -21 3 -16 -13 4 -15 2 -11 -10 4 -11 2 -14 -5 -9 -7 4 -12 2 -12
-4 0 -7 7 -9 15 -6 9 3 18 -1 22 -10 3 -8 12 -13 20 -10 9 4 11 2 7 -6 -4 -7
-3 -8 4 -4 7 4 12 2 12 -3 0 -6 -5 -11 -12 -11 -6 0 -9 -2 -6 -5 3 -3 12 -3
21 1 13 5 14 9 4 25 -7 11 -18 17 -27 14 -8 -4 -11 -3 -7 1 4 4 2 13 -4 21
-14 17 3 17 20 1 10 -11 11 -10 6 5 -4 9 -13 17 -20 17 -7 0 -18 7 -25 16 -11
12 -10 18 4 32 17 16 18 16 12 -4 -5 -15 -1 -24 10 -28 12 -5 14 -3 7 6 -5 7
-8 23 -7 36 2 28 -5 27 -36 -6z"/>
<path d="M966 1359 c3 -5 15 -7 27 -4 16 5 18 4 8 -3 -9 -7 -10 -12 -2 -16 6
-4 11 -2 11 3 0 6 1 14 3 18 1 4 -10 9 -26 10 -16 1 -25 -2 -21 -8z"/>
<path d="M982 1324 c10 -10 20 -16 22 -13 3 3 -5 11 -17 18 -21 13 -21 12 -5
-5z"/>
<path d="M987 1293 c-6 -11 -3 -46 6 -59 3 -6 -2 -19 -13 -29 -17 -16 -18 -19
-4 -40 16 -24 15 -45 -1 -58 -5 -4 2 -5 18 -1 30 7 36 -6 12 -29 -12 -13 -11
-15 9 -13 12 0 23 6 24 11 0 6 3 24 6 42 3 20 0 36 -10 43 -9 8 -14 9 -14 2 0
-6 4 -13 10 -17 5 -3 7 -12 3 -21 -4 -10 -9 -12 -18 -4 -6 5 -16 6 -20 2 -5
-4 -5 -2 -1 5 4 7 14 9 22 6 14 -5 14 -3 3 15 -7 11 -22 26 -34 32 -18 10 -18
10 0 5 11 -3 16 -3 13 1 -4 4 -1 16 7 28 18 25 19 36 3 32 -7 -1 -9 -1 -5 2 4
2 3 10 -3 17 -8 10 -8 15 1 21 8 4 9 3 5 -5 -4 -6 0 -14 8 -17 9 -3 16 -12 16
-19 0 -7 6 -15 13 -18 7 -3 12 4 12 18 0 13 -5 21 -12 18 -6 -3 -16 5 -23 16
-11 21 -25 27 -33 14z"/>
<path d="M1270 1290 c0 -5 5 -10 10 -10 6 0 10 5 10 10 0 6 -4 10 -10 10 -5 0
-10 -4 -10 -10z"/>
<path d="M1065 1231 c3 -11 1 -22 -5 -26 -5 -3 -10 -1 -10 5 0 6 -4 9 -9 6 -5
-4 -11 -2 -13 4 -2 6 -8 2 -15 -8 -7 -13 -8 -23 -1 -33 8 -11 9 -10 4 4 -8 26
-1 21 29 -23 15 -22 32 -37 38 -33 5 3 3 10 -7 15 -9 5 -16 14 -16 21 0 8 3 8
9 -2 5 -8 11 -9 15 -3 6 11 -21 25 -33 17 -4 -2 -8 2 -8 9 0 7 6 13 14 13 7 0
13 -5 13 -10 0 -5 6 -4 14 2 9 7 17 8 20 2 7 -11 32 -9 43 4 4 4 2 5 -4 1 -8
-4 -13 -1 -13 8 0 10 -8 15 -22 13 -13 -1 -22 3 -21 10 1 6 -5 14 -13 17 -11
4 -14 1 -9 -13z"/>
<path d="M1161 1181 c-8 -6 -9 -11 -3 -15 6 -3 14 -1 17 5 9 14 2 20 -14 10z"/>
<path d="M903 893 c-15 -5 -17 -23 -4 -23 5 0 11 7 15 15 3 8 4 15 3 14 -1 0
-8 -3 -14 -6z"/>
<path d="M856 848 c3 -4 -1 -11 -10 -14 -8 -3 -14 -14 -13 -24 1 -10 5 -16 9
-14 4 3 9 0 9 -5 1 -6 2 -17 3 -23 1 -16 36 -23 36 -8 0 6 -5 8 -12 4 -6 -4
-8 -3 -4 4 3 6 1 14 -5 17 -5 4 -8 14 -5 22 4 11 2 13 -9 9 -26 -9 -17 3 13
17 15 7 34 12 44 10 9 -2 18 0 21 4 3 4 -15 8 -39 9 -24 0 -41 -3 -38 -8z"/>
<path d="M879 828 c-10 -7 -9 -8 6 -4 20 6 20 6 1 -9 -11 -8 -17 -18 -13 -21
4 -4 13 -2 20 4 8 7 18 8 22 4 5 -4 5 -2 2 5 -4 6 -2 13 5 15 7 3 3 7 -9 10
-11 3 -27 1 -34 -4z"/>
<path d="M895 790 c-10 -16 4 -30 23 -24 9 3 0 -4 -20 -16 -21 -11 -38 -25
-38 -30 0 -13 18 -22 24 -11 4 5 1 11 -6 13 -7 3 -4 7 7 12 11 4 16 4 12 0 -4
-4 -2 -13 3 -20 6 -6 9 -17 8 -24 -5 -19 19 -23 26 -5 7 20 -2 38 -15 30 -5
-4 -9 -2 -9 4 0 5 6 12 13 14 8 4 8 6 -3 6 -10 1 -8 6 8 17 12 8 22 20 22 26
0 6 -3 8 -6 5 -4 -3 -15 -2 -25 3 -12 7 -20 7 -24 0z"/>
<path d="M799 754 c-19 -15 -26 -24 -16 -20 13 4 20 0 24 -13 3 -12 11 -17 23
-14 26 7 34 35 15 49 -12 9 -13 13 -3 17 7 3 8 6 2 6 -5 1 -26 -11 -45 -25z
m15 -5 c-4 -8 1 -9 17 -5 13 3 18 3 11 0 -6 -3 -9 -10 -6 -16 4 -6 -3 -5 -15
2 -18 9 -21 30 -5 30 3 0 2 -5 -2 -11z"/>
<path d="M715 691 c-3 -5 -2 -12 3 -15 5 -3 9 1 9 9 0 17 -3 19 -12 6z"/>
<path d="M750 679 c0 -5 5 -7 10 -4 6 3 10 8 10 11 0 2 -4 4 -10 4 -5 0 -10
-5 -10 -11z"/>
<path d="M985 560 c3 -5 8 -10 11 -10 2 0 4 5 4 10 0 6 -5 10 -11 10 -5 0 -7
-4 -4 -10z"/>
<path d="M770 540 c0 -5 5 -10 11 -10 5 0 7 5 4 10 -3 6 -8 10 -11 10 -2 0 -4
-4 -4 -10z"/>
<path d="M775 500 c-3 -5 -1 -10 4 -10 6 0 11 5 11 10 0 6 -2 10 -4 10 -3 0
-8 -4 -11 -10z"/>
<path d="M841 481 c-10 -7 -7 -9 12 -8 14 1 23 5 20 10 -6 9 -15 9 -32 -2z"/>
<path d="M880 449 c11 -8 12 -12 2 -16 -6 -2 -9 -9 -6 -14 3 -6 12 -2 19 8 10
13 10 20 2 25 -19 12 -34 9 -17 -3z"/>
<path d="M1010 400 c0 -5 5 -10 10 -10 6 0 10 5 10 10 0 6 -4 10 -10 10 -5 0
-10 -4 -10 -10z"/>
<path d="M1396 402 c-3 -5 1 -9 9 -9 8 0 12 4 9 9 -3 4 -7 8 -9 8 -2 0 -6 -4
-9 -8z"/>
<path d="M895 380 c3 -5 8 -10 11 -10 2 0 4 5 4 10 0 6 -5 10 -11 10 -5 0 -7
-4 -4 -10z"/>
<path d="M994 365 c1 -13 6 -28 10 -32 5 -4 6 -3 3 3 -4 7 0 17 9 24 12 11 12
15 2 21 -21 14 -25 11 -24 -16z"/>
<path d="M900 356 c0 -2 7 -7 16 -10 8 -3 12 -2 9 4 -6 10 -25 14 -25 6z"/>
<path d="M1620 286 c0 -2 8 -10 18 -17 15 -13 16 -12 3 4 -13 16 -21 21 -21
13z"/>
<path d="M1747 273 c-13 -13 -7 -21 13 -16 11 3 17 9 14 14 -6 11 -18 12 -27
2z"/>
<path d="M930 260 c0 -5 5 -10 11 -10 5 0 7 5 4 10 -3 6 -8 10 -11 10 -2 0 -4
-4 -4 -10z"/>
</g>
</svg>
