<?xml version="1.0" standalone="no"?>
<!DOCTYPE svg PUBLIC "-//W3C//DTD SVG 20010904//EN"
 "http://www.w3.org/TR/2001/REC-SVG-20010904/DTD/svg10.dtd">
<svg version="1.0" xmlns="http://www.w3.org/2000/svg"
 width="260.000000pt" height="260.000000pt" viewBox="0 0 260.000000 260.000000"
 preserveAspectRatio="xMidYMid meet">
<metadata>
Created by potrace 1.11, written by Peter Selinger 2001-2013
</metadata>
<g transform="translate(0.000000,260.000000) scale(0.100000,-0.100000)"
fill="#000000" stroke="none">
<path d="M700 2300 c-25 -26 -155 -161 -290 -300 -135 -138 -282 -290 -328
-337 l-82 -86 0 -666 0 -667 380 0 380 0 0 1048 c0 576 -3 1049 -7 1051 -5 2
-28 -17 -53 -43z"/>
<path d="M2550 2310 c-30 -33 -385 -399 -632 -653 l-78 -79 0 -667 0 -667 380
0 380 0 0 1047 c0 577 -3 1050 -7 1052 -5 2 -24 -13 -43 -33z"/>
<path d="M1567 1896 c-45 -46 -192 -198 -327 -337 -135 -139 -266 -274 -293
-300 l-47 -48 2 -483 3 -483 378 0 377 -1 0 868 c0 477 -2 868 -6 868 -3 0
-42 -38 -87 -84z"/>
</g>
</svg>
